PathFileType	4	(X/Y/Z)	D:\TRACE\spotREDO_2-26-24\spot_justBody_Motion_3_1-v60.trc
DataRate	CameraRate	NumFrames	NumMarkers	Units	OrigDataRate	OrigDataStartFrame	OrigNumFrames
100.00	100.00	      17	9	mm	100.00	2626	      7000
Frame#	Time	front left toe			Front right toe			aft left toe			aft right toe			Arm			FL body			FR body			AL Body			AR Body			
		X1	Y1	Z1	X2	Y2	Z2	X3	Y3	Z3	X4	Y4	Z4	X5	Y5	Z5	X6	Y6	Z6	X7	Y7	Z7	X8	Y8	Z8	X9	Y9	Z9	

2626	26.250	-176.43425	20.17862	-147.36592	325.56226	22.07416	-123.51496	-106.15698	21.23106	205.64357	246.04372	23.55215	297.20483	59.86742	822.22034	-370.33884	-21.62517	561.98334	-350.45099	133.90913	567.25256	-358.57724	16.70084	547.95087	532.72815	157.81445	552.94751	527.64709	
2627	26.260	-176.32730	19.82795	-147.62178	325.57233	21.87425	-123.67988	-106.16390	21.38502	205.54465	246.05280	23.90552	296.98218	59.74003	821.93512	-370.89804	-21.74640	561.68469	-350.86597	133.65741	566.89838	-359.04462	16.92459	548.33002	532.07202	158.36691	553.41864	527.00244	
2628	26.270	-176.31454	19.76142	-147.80513	325.70166	21.74120	-123.74435	-106.09547	21.78380	205.21558	246.24979	24.29662	296.77332	59.75368	821.77716	-371.30670	-21.85365	561.30426	-351.05579	133.66794	566.61902	-359.43030	17.52032	548.91455	531.76361	158.68802	553.82703	526.47601	
2629	26.280	-176.34918	19.72735	-148.00981	325.93222	21.48720	-123.92747	-106.10084	22.02477	205.08330	246.40520	24.59082	296.57346	59.67530	821.49426	-372.15527	-21.94507	561.00592	-351.33453	133.73454	566.30292	-359.75171	18.04224	549.24432	531.58405	158.95129	554.17883	525.85034	
2630	26.290	-176.32178	19.61184	-148.13159	326.13516	21.29180	-123.99281	-106.04118	22.13496	205.03188	246.46864	24.74145	296.29874	59.51719	821.12463	-372.51071	-22.45594	561.05371	-352.23938	133.55785	566.24048	-360.63962	18.30954	549.69281	531.09729	159.54309	554.41180	525.42572	
2631	26.300	-176.32962	19.39736	-148.25891	326.27264	21.15926	-124.15231	-105.90240	22.20839	205.00578	246.57027	24.97741	295.90228	59.23680	820.89526	-373.23517	-22.59314	560.83667	-352.66888	133.34317	565.55316	-360.67245	18.84969	549.87585	530.74884	159.80257	554.55951	525.25757	
2632	26.310	-176.21881	19.11359	-148.35091	326.22424	20.93763	-124.42455	-105.67416	22.51334	204.79793	246.59169	25.23428	295.70221	59.23515	820.49054	-374.12317	-22.39636	560.36084	-352.69720	133.04013	565.26538	-361.23624	19.14575	550.17828	530.33167	160.44409	555.10339	524.67706	
2633	26.320	-176.19081	18.92085	-148.44087	326.52621	20.90712	-124.63174	-105.56497	22.81312	204.62558	246.71086	25.46107	295.52411	59.44003	820.12695	-374.49899	-22.40866	560.13348	-353.11862	132.90170	564.97412	-361.69510	19.70133	550.49658	529.89386	160.64322	555.32208	524.10114	
2634	26.330	-176.25476	18.76036	-148.68396	326.50681	20.73177	-124.93551	-105.53458	22.98528	204.51070	246.90068	25.83775	295.51160	59.35537	819.71051	-374.90170	-22.48203	559.78174	-353.43744	132.82452	564.67285	-362.09659	20.13989	550.77606	529.53979	160.98927	555.62317	523.60724	
2635	26.340	-176.24683	18.66873	-148.77226	326.03635	20.58655	-125.47018	-105.50755	23.05500	204.41721	246.86624	26.03042	295.27252	58.97654	819.57056	-375.53802	-22.57911	559.46539	-353.57172	132.81570	564.31793	-362.69864	20.60615	551.08887	528.96619	161.42427	555.99579	523.21808	
2636	26.350	-176.31345	18.55001	-148.89996	326.10114	20.53397	-125.51453	-105.59875	23.24669	204.20992	246.75911	26.36879	295.08008	59.12563	819.10681	-376.45242	-23.27221	559.23102	-354.51212	132.56601	563.71301	-363.08826	20.87085	551.70239	528.60681	161.88435	556.50690	522.81995	
2637	26.360	-176.54765	17.99360	-149.13614	326.20856	20.07485	-125.71958	-105.82926	24.10101	203.54172	246.71434	27.67953	294.74759	59.11465	818.16827	-377.16577	-22.92111	558.36859	-354.58078	132.39868	563.00140	-363.56482	20.90826	552.66364	528.31586	162.23047	557.12885	522.30170	
2638	26.370	-176.56984	17.77572	-149.15132	326.12238	19.88181	-126.19942	-105.74753	23.91422	203.40779	246.64537	27.67750	294.94662	59.20752	817.47559	-377.99380	-23.16851	558.23505	-354.99271	132.15106	562.44440	-364.08658	21.44800	552.58191	528.00073	162.45001	556.94434	521.97925	
2639	26.380	-176.53622	17.59449	-149.23758	326.14148	19.94819	-125.95324	-105.87711	23.73642	203.25728	246.55519	27.54217	294.65704	59.64899	816.99805	-378.34827	-23.32211	558.22223	-355.20206	131.92265	562.12805	-364.37997	21.95242	552.36273	527.79712	163.04962	556.25024	521.59485	
2640	26.390	-176.52925	17.35077	-149.48738	326.13580	19.79228	-126.07279	-105.80322	23.96648	203.08357	246.71123	27.63491	294.60355	59.80672	817.03107	-378.39899	-23.39344	557.99017	-355.35852	132.04109	562.14496	-364.98590	22.28939	552.42059	527.53192	163.67397	556.04425	521.22705	
2641	26.400	-176.43286	17.60026	-149.45589	326.15851	19.70174	-126.10949	-105.78185	24.26032	202.89484	246.54921	27.56921	294.23416	59.86683	817.00989	-378.41519	-23.45362	557.79944	-355.48734	132.15335	561.67798	-364.69675	22.52831	552.56982	527.48401	163.50055	556.38202	520.93896	
2642	26.410	-176.51660	17.19508	-149.76596	326.08395	19.47470	-126.32520	-105.74334	24.43032	202.86328	246.41010	27.53632	293.98572	59.82695	816.98553	-378.51035	-23.51242	557.64972	-355.48663	132.19885	561.57385	-364.82590	22.65153	552.83649	527.35547	163.85495	556.55383	520.72131	
